<svg width="32" height="32" viewBox="0 0 32 32" fill="none" xmlns="http://www.w3.org/2000/svg">
<mask id="path-1-inside-1_24_363" fill="white">
<path d="M0 6C0 2.68629 2.68629 0 6 0H26C29.3137 0 32 2.68629 32 6V26C32 29.3137 29.3137 32 26 32H6C2.68629 32 0 29.3137 0 26V6Z"/>
</mask>
<path d="M0 6C0 2.68629 2.68629 0 6 0H26C29.3137 0 32 2.68629 32 6V26C32 29.3137 29.3137 32 26 32H6C2.68629 32 0 29.3137 0 26V6Z" fill="#90C6FF"/>
<path d="M6 0V1H26V0V-1H6V0ZM32 6H31V26H32H33V6H32ZM26 32V31H6V32V33H26V32ZM0 26H1V6H0H-1V26H0ZM6 32V31C3.23858 31 1 28.7614 1 26H0H-1C-1 29.866 2.13401 33 6 33V32ZM32 26H31C31 28.7614 28.7614 31 26 31V32V33C29.866 33 33 29.866 33 26H32ZM26 0V1C28.7614 1 31 3.23858 31 6H32H33C33 2.13401 29.866 -1 26 -1V0ZM6 0V-1C2.13401 -1 -1 2.13401 -1 6H0H1C1 3.23858 3.23858 1 6 1V0Z" fill="white" fill-opacity="0.05" mask="url(#path-1-inside-1_24_363)"/>
<path d="M13.0005 14.5002C13.0005 14.3013 13.0795 14.1105 13.2202 13.9699C13.3608 13.8292 13.5516 13.7502 13.7505 13.7502H18.2505C18.4494 13.7502 18.6402 13.8292 18.7808 13.9699C18.9215 14.1105 19.0005 14.3013 19.0005 14.5002C19.0005 14.6991 18.9215 14.8899 18.7808 15.0305C18.6402 15.1712 18.4494 15.2502 18.2505 15.2502H13.7505C13.5516 15.2502 13.3608 15.1712 13.2202 15.0305C13.0795 14.8899 13.0005 14.6991 13.0005 14.5002ZM13.7505 16.7502C13.5516 16.7502 13.3608 16.8292 13.2202 16.9699C13.0795 17.1105 13.0005 17.3013 13.0005 17.5002C13.0005 17.6991 13.0795 17.8899 13.2202 18.0305C13.3608 18.1712 13.5516 18.2502 13.7505 18.2502H16.7505C16.9494 18.2502 17.1402 18.1712 17.2808 18.0305C17.4215 17.8899 17.5005 17.6991 17.5005 17.5002C17.5005 17.3013 17.4215 17.1105 17.2808 16.9699C17.1402 16.8292 16.9494 16.7502 16.7505 16.7502H13.7505ZM7.00052 16.0002C7.0009 14.0188 7.65516 12.0929 8.86179 10.5212C10.0684 8.94956 11.76 7.82002 13.6741 7.30784C15.5882 6.79565 17.6178 6.92944 19.4481 7.68845C21.2784 8.44746 22.807 9.78926 23.7969 11.5057C24.7868 13.2222 25.1826 15.2173 24.9229 17.1816C24.6632 19.146 23.7625 20.9697 22.3605 22.3699C20.9585 23.7701 19.1337 24.6685 17.169 24.9258C15.2044 25.183 13.2097 24.7848 11.4945 23.7927L7.98752 24.9627C7.85795 25.006 7.71903 25.013 7.58575 24.9831C7.45247 24.9532 7.32989 24.8875 7.23124 24.793C7.13259 24.6985 7.06161 24.5789 7.02597 24.447C6.99034 24.3151 6.99139 24.176 7.02902 24.0447L8.09702 20.3082C7.37705 18.9865 7.00005 17.5053 7.00052 16.0002ZM16.0005 8.50022C14.6763 8.50013 13.3756 8.85066 12.2308 9.51618C11.086 10.1817 10.1377 11.1385 9.48249 12.2892C8.82727 13.44 8.4884 14.7437 8.50035 16.0679C8.5123 17.3921 8.87463 18.6895 9.55052 19.8282C9.60252 19.9162 9.636 20.0139 9.64889 20.1152C9.66179 20.2166 9.65384 20.3195 9.62552 20.4177L8.86202 23.0877L11.349 22.2597C11.4546 22.2245 11.5668 22.2132 11.6773 22.2267C11.7878 22.2402 11.894 22.2781 11.988 22.3377C12.9709 22.9598 14.085 23.3447 15.2423 23.462C16.3996 23.5793 17.5683 23.4258 18.656 23.0137C19.7438 22.6016 20.7207 21.9421 21.5097 21.0874C22.2987 20.2327 22.8781 19.2062 23.202 18.089C23.526 16.9718 23.5856 15.7946 23.3763 14.6504C23.1669 13.5062 22.6943 12.4263 21.9958 11.4962C21.2972 10.5661 20.3919 9.81127 19.3514 9.29129C18.3109 8.77132 17.1637 8.50049 16.0005 8.50022Z" fill="black"/>
</svg>
