<svg width="32" height="32" viewBox="0 0 32 32" fill="none" xmlns="http://www.w3.org/2000/svg">
<mask id="path-1-inside-1_24_308" fill="white">
<path d="M0 6C0 2.68629 2.68629 0 6 0H26C29.3137 0 32 2.68629 32 6V26C32 29.3137 29.3137 32 26 32H6C2.68629 32 0 29.3137 0 26V6Z"/>
</mask>
<path d="M0 6C0 2.68629 2.68629 0 6 0H26C29.3137 0 32 2.68629 32 6V26C32 29.3137 29.3137 32 26 32H6C2.68629 32 0 29.3137 0 26V6Z" fill="#D7B9FF"/>
<path d="M6 0V1H26V0V-1H6V0ZM32 6H31V26H32H33V6H32ZM26 32V31H6V32V33H26V32ZM0 26H1V6H0H-1V26H0ZM6 32V31C3.23858 31 1 28.7614 1 26H0H-1C-1 29.866 2.13401 33 6 33V32ZM32 26H31C31 28.7614 28.7614 31 26 31V32V33C29.866 33 33 29.866 33 26H32ZM26 0V1C28.7614 1 31 3.23858 31 6H32H33C33 2.13401 29.866 -1 26 -1V0ZM6 0V-1C2.13401 -1 -1 2.13401 -1 6H0H1C1 3.23858 3.23858 1 6 1V0Z" fill="white" fill-opacity="0.05" mask="url(#path-1-inside-1_24_308)"/>
<path fill-rule="evenodd" clip-rule="evenodd" d="M23.4648 20.747C24.7176 16.0718 21.7512 11.243 16.878 9.93738C11.3748 8.46138 3.56403 12.2942 5.30163 17.2106C5.87763 18.8366 6.98643 19.217 9.07803 19.247L9.20883 19.2494C10.314 19.2626 10.6248 19.3346 10.7184 19.4858C10.8708 19.7354 10.8732 20.1326 10.7016 21.2258C10.62 21.7418 10.5936 21.9218 10.5624 22.2038C10.3716 23.921 10.662 25.2602 11.7864 26.4722C15.3 30.2558 22.05 26.0246 23.4648 20.747ZM7.56483 16.4114C6.69003 13.937 12.288 11.1914 16.2564 12.2546C19.8768 13.2254 22.0476 16.7594 21.1464 20.1254C20.1408 23.879 15.408 26.8454 13.5456 24.839C12.9696 24.2198 12.8268 23.5574 12.948 22.469C12.9732 22.2362 12.9972 22.0754 13.0728 21.5978C13.3356 19.9214 13.332 19.1558 12.7632 18.2306C12.0504 17.0702 11.2032 16.8746 9.23883 16.8494L9.11163 16.847C7.95483 16.8314 7.68003 16.7366 7.56363 16.4102" fill="black"/>
<path d="M11.2012 15.9998C10.8033 15.9998 10.4218 15.8418 10.1405 15.5605C9.85921 15.2792 9.70117 14.8977 9.70117 14.4998C9.70117 14.102 9.85921 13.7205 10.1405 13.4392C10.4218 13.1579 10.8033 12.9998 11.2012 12.9998C11.599 12.9998 11.9805 13.1579 12.2618 13.4392C12.5431 13.7205 12.7012 14.102 12.7012 14.4998C12.7012 14.8977 12.5431 15.2792 12.2618 15.5605C11.9805 15.8418 11.599 15.9998 11.2012 15.9998ZM15.7012 15.9998C15.3033 15.9998 14.9218 15.8418 14.6405 15.5605C14.3592 15.2792 14.2012 14.8977 14.2012 14.4998C14.2012 14.102 14.3592 13.7205 14.6405 13.4392C14.9218 13.1579 15.3033 12.9998 15.7012 12.9998C16.099 12.9998 16.4805 13.1579 16.7618 13.4392C17.0431 13.7205 17.2012 14.102 17.2012 14.4998C17.2012 14.8977 17.0431 15.2792 16.7618 15.5605C16.4805 15.8418 16.099 15.9998 15.7012 15.9998ZM18.7012 19.5998C18.3033 19.5998 17.9218 19.4418 17.6405 19.1605C17.3592 18.8792 17.2012 18.4977 17.2012 18.0998C17.2012 17.702 17.3592 17.3205 17.6405 17.0392C17.9218 16.7579 18.3033 16.5998 18.7012 16.5998C19.099 16.5998 19.4805 16.7579 19.7618 17.0392C20.0431 17.3205 20.2012 17.702 20.2012 18.0998C20.2012 18.4977 20.0431 18.8792 19.7618 19.1605C19.4805 19.4418 19.099 19.5998 18.7012 19.5998ZM16.9012 23.7998C16.5033 23.7998 16.1218 23.6418 15.8405 23.3605C15.5592 23.0792 15.4012 22.6977 15.4012 22.2998C15.4012 21.902 15.5592 21.5205 15.8405 21.2392C16.1218 20.9579 16.5033 20.7998 16.9012 20.7998C17.299 20.7998 17.6805 20.9579 17.9618 21.2392C18.2431 21.5205 18.4012 21.902 18.4012 22.2998C18.4012 22.6977 18.2431 23.0792 17.9618 23.3605C17.6805 23.6418 17.299 23.7998 16.9012 23.7998ZM21.2452 8.32584C21.3875 8.24961 21.5437 8.20287 21.7044 8.18841C21.8652 8.17396 22.0272 8.19209 22.1808 8.24172C22.3344 8.29136 22.4764 8.37147 22.5984 8.47726C22.7203 8.58306 22.8196 8.71236 22.8904 8.85744L27.802 18.9374C27.884 19.1186 27.8939 19.3242 27.8297 19.5125C27.7656 19.7007 27.6321 19.8575 27.4565 19.9509C27.2809 20.0442 27.0764 20.0672 26.8844 20.0152C26.6925 19.9631 26.5275 19.8399 26.4232 19.6706L20.7736 9.98664C20.6927 9.84724 20.6407 9.69299 20.6208 9.53307C20.6008 9.37316 20.6133 9.21086 20.6574 9.05586C20.7015 8.90086 20.7764 8.75634 20.8776 8.63092C20.9788 8.50549 21.1042 8.40174 21.2464 8.32584" fill="black"/>
<path fill-rule="evenodd" clip-rule="evenodd" d="M19.0465 8.18057C19.6297 9.27857 20.6125 9.58577 21.5629 9.08057C22.5121 8.57657 22.8085 7.58897 22.2241 6.49097C21.5569 5.23337 20.1265 4.09337 19.1785 4.59617C18.2305 5.09897 18.3769 6.92297 19.0465 8.18057ZM20.1049 7.61657C19.8933 7.18954 19.7631 6.72686 19.7209 6.25217C19.7033 6.05365 19.7106 5.85371 19.7425 5.65697L19.7641 5.66777C19.8241 5.69657 20.0101 5.78297 20.2477 5.97257C20.6101 6.26177 20.9701 6.68777 21.1645 7.05377C21.4393 7.56977 21.3613 7.82897 20.9989 8.02217C20.6389 8.21417 20.3797 8.13257 20.1049 7.61777" fill="black"/>
</svg>
