<svg width="28" height="20" viewBox="0 0 28 20" fill="none" xmlns="http://www.w3.org/2000/svg">
<path d="M16.2289 3.04487C16.2289 4.03487 15.6639 4.89487 14.8379 5.31487C16.0949 8.46987 17.4079 10.0219 18.5649 10.1449C19.8749 10.2829 21.0719 9.71287 22.2449 8.30787C22.2749 8.27087 22.3079 8.23587 22.3419 8.20387C22.0323 7.72135 21.8947 7.14846 21.9514 6.57799C22.0081 6.00752 22.2557 5.47289 22.6542 5.06072C23.0526 4.64855 23.5786 4.38298 24.1468 4.30704C24.715 4.23109 25.2922 4.34921 25.785 4.64227C26.2777 4.93533 26.657 5.38616 26.8615 5.92172C27.066 6.45727 27.0837 7.0462 26.9117 7.59307C26.7398 8.13995 26.3882 8.61274 25.914 8.93486C25.4397 9.25698 24.8707 9.40955 24.2989 9.36787L22.4009 16.5949C22.0049 18.1009 20.5839 19.1569 18.9529 19.1569H8.43789C6.80789 19.1569 5.38589 18.1009 4.99089 16.5949L3.10089 9.39987C2.52988 9.44871 1.95909 9.30348 1.48086 8.98766C1.00264 8.67184 0.644951 8.20392 0.465672 7.65958C0.286393 7.11525 0.296008 6.52635 0.492962 5.98816C0.689916 5.44997 1.06269 4.99397 1.55097 4.69393C2.03925 4.39389 2.61448 4.26737 3.18359 4.33483C3.7527 4.40229 4.28241 4.65979 4.68701 5.06567C5.09162 5.47155 5.34745 6.00206 5.41312 6.57138C5.47879 7.1407 5.35046 7.71553 5.04889 8.20287C5.08889 8.24087 5.12589 8.28187 5.16189 8.32687C6.27789 9.72287 7.46489 10.2879 8.82689 10.1439C10.0369 10.0159 11.3439 8.47287 12.5509 5.32487C12.1449 5.12301 11.8002 4.81637 11.5524 4.43663C11.3047 4.0569 11.1629 3.61788 11.1417 3.16497C11.1205 2.71205 11.2207 2.2617 11.4319 1.86049C11.6431 1.45928 11.9576 1.12177 12.343 0.88288C12.7284 0.643989 13.1705 0.512387 13.6238 0.501686C14.0771 0.490985 14.525 0.601573 14.9212 0.822012C15.3174 1.04245 15.6476 1.36474 15.8775 1.75554C16.1074 2.14634 16.2287 2.59146 16.2289 3.04487Z" fill="url(#paint0_linear_24_524)"/>
<defs>
<linearGradient id="paint0_linear_24_524" x1="-5.82911" y1="1.49987" x2="25.1709" y2="17.9999" gradientUnits="userSpaceOnUse">
<stop offset="0.182692" stop-color="#F49200"/>
<stop offset="0.644231" stop-color="#FFE95D"/>
<stop offset="1" stop-color="#F49200"/>
</linearGradient>
</defs>
</svg>
