<svg width="64" height="64" viewBox="0 0 64 64" fill="none" xmlns="http://www.w3.org/2000/svg">
<rect width="64" height="64" rx="8" fill="white"/>
<rect x="0.75" y="0.75" width="62.5" height="62.5" rx="7.25" stroke="#5FBF92" stroke-opacity="0.3" stroke-width="1.5"/>
<path d="M40.5714 33.7143V32C40.5714 31.5453 40.3908 31.1093 40.0693 30.7878C39.7478 30.4663 39.3118 30.2857 38.8571 30.2857H21.7143C21.2596 30.2857 20.8236 30.4663 20.5021 30.7878C20.1806 31.1093 20 31.5453 20 32V42.2857C20 42.7404 20.1806 43.1764 20.5021 43.4979C20.8236 43.8194 21.2596 44 21.7143 44H38.8571C39.3118 44 39.7478 43.8194 40.0693 43.4979C40.3908 43.1764 40.5714 42.7404 40.5714 42.2857V40.5714M40.5714 33.7143H33.7143C32.805 33.7143 31.9329 34.0755 31.2899 34.7185C30.6469 35.3615 30.2857 36.2335 30.2857 37.1429C30.2857 38.0522 30.6469 38.9242 31.2899 39.5672C31.9329 40.2102 32.805 40.5714 33.7143 40.5714H40.5714M40.5714 33.7143C41.4807 33.7143 42.3528 34.0755 42.9958 34.7185C43.6388 35.3615 44 36.2335 44 37.1429C44 38.0522 43.6388 38.9242 42.9958 39.5672C42.3528 40.2102 41.4807 40.5714 40.5714 40.5714M25.1429 30.2857V25.1429C25.1429 23.7789 25.6847 22.4708 26.6492 21.5063C27.6136 20.5418 28.9217 20 30.2857 20C31.6497 20 32.9578 20.5418 33.9223 21.5063C34.8867 22.4708 35.4286 23.7789 35.4286 25.1429V30.2857M39.7143 37.1429H41.4286M36.2857 37.1429H38M32.8571 37.1429H34.5714" stroke="#5FBF92" stroke-width="1.5"/>
</svg>
