<svg width="32" height="32" viewBox="0 0 32 32" fill="none" xmlns="http://www.w3.org/2000/svg">
<mask id="path-1-inside-1_24_280" fill="white">
<path d="M0 6C0 2.68629 2.68629 0 6 0H26C29.3137 0 32 2.68629 32 6V26C32 29.3137 29.3137 32 26 32H6C2.68629 32 0 29.3137 0 26V6Z"/>
</mask>
<path d="M0 6C0 2.68629 2.68629 0 6 0H26C29.3137 0 32 2.68629 32 6V26C32 29.3137 29.3137 32 26 32H6C2.68629 32 0 29.3137 0 26V6Z" fill="#78FBBE"/>
<path d="M6 0V1H26V0V-1H6V0ZM32 6H31V26H32H33V6H32ZM26 32V31H6V32V33H26V32ZM0 26H1V6H0H-1V26H0ZM6 32V31C3.23858 31 1 28.7614 1 26H0H-1C-1 29.866 2.13401 33 6 33V32ZM32 26H31C31 28.7614 28.7614 31 26 31V32V33C29.866 33 33 29.866 33 26H32ZM26 0V1C28.7614 1 31 3.23858 31 6H32H33C33 2.13401 29.866 -1 26 -1V0ZM6 0V-1C2.13401 -1 -1 2.13401 -1 6H0H1C1 3.23858 3.23858 1 6 1V0Z" fill="white" fill-opacity="0.05" mask="url(#path-1-inside-1_24_280)"/>
<path d="M15.5275 13.7809C15.611 13.8084 15.6965 13.8287 15.784 13.8417C15.923 13.8767 16.0637 13.9017 16.2062 13.9167C16.2741 14.2432 16.45 14.5373 16.7055 14.7516C16.9611 14.9659 17.2814 15.0878 17.6147 15.0977C17.9481 15.1076 18.275 15.0048 18.5428 14.8061C18.8106 14.6073 19.0036 14.3241 19.0907 14.0022C19.2542 13.4127 19.3382 12.8037 19.3405 12.1917C19.6986 11.7063 19.993 11.177 20.2165 10.6167L20.2262 10.5942L20.3065 10.3992L20.4092 10.1397C20.519 9.8554 20.6227 9.56883 20.7205 9.28018L20.7407 9.22018L20.7482 9.19618C20.7992 9.04618 20.8502 8.87968 20.8982 8.71168C20.9267 8.61468 20.954 8.51668 20.98 8.41768C21.1033 7.97869 21.1841 7.52888 21.2215 7.07443V7.05193C21.2345 6.67996 21.1087 6.31644 20.8686 6.03202C20.6286 5.74759 20.2913 5.56258 19.9225 5.51293C19.6307 5.4755 19.3345 5.52644 19.072 5.65918C18.8414 5.77591 18.645 5.9502 18.5016 6.16518C18.3583 6.38015 18.2729 6.62851 18.2537 6.88618V6.89368C18.1953 7.3523 18.0872 7.8032 17.9312 8.23843C17.8562 8.46343 17.7812 8.67718 17.7062 8.86843C17.5552 8.79093 17.3992 8.72593 17.2382 8.67343L17.224 8.66668C16.5486 8.45197 15.8159 8.51201 15.1845 8.83378C14.5531 9.15555 14.0739 9.71314 13.8508 10.3857C13.6276 11.0583 13.6785 11.7918 13.9923 12.4271C14.3062 13.0625 14.8577 13.5486 15.5275 13.7802V13.7809ZM18.367 13.8042C18.3271 13.9523 18.2417 14.0841 18.123 14.1812C18.0043 14.2782 17.8581 14.3357 17.7051 14.3453C17.552 14.355 17.3998 14.3165 17.2697 14.2352C17.1397 14.1538 17.0385 14.0338 16.9802 13.8919C17.1227 13.8664 17.2625 13.8304 17.3995 13.7839C17.8123 13.6377 18.192 13.4108 18.5162 13.1164C18.4787 13.3484 18.429 13.5777 18.367 13.8042ZM14.5345 10.6092C14.6147 10.3673 14.7417 10.1437 14.9084 9.95097C15.0751 9.75825 15.2781 9.60027 15.5059 9.48605C15.7336 9.37182 15.9817 9.30359 16.2358 9.28526C16.4899 9.26692 16.7452 9.29884 16.987 9.37918L17.0095 9.38668C17.156 9.43368 17.2962 9.49468 17.4302 9.56968L17.4145 9.60643V9.61543C17.2471 10.0059 17.0193 10.3675 16.7395 10.6872L16.7275 10.6992L16.7087 10.7209C16.6847 10.7491 16.6597 10.7764 16.6337 10.8027L16.5587 10.7742L16.5362 10.7667C16.4169 10.7272 16.2867 10.7366 16.1743 10.7928C16.0619 10.8491 15.9763 10.9475 15.9362 11.0667C15.9135 11.1247 15.9038 11.187 15.9076 11.2492C15.9115 11.3114 15.929 11.3719 15.9587 11.4267C16.0037 11.5227 16.0802 11.5999 16.1755 11.6457C16.2005 11.6517 16.2255 11.6587 16.2505 11.6667C16.3185 11.6912 16.3882 11.7064 16.4597 11.7124C16.5739 11.7192 16.6876 11.6932 16.7875 11.6374C16.84 11.6104 16.89 11.5794 16.9375 11.5444C17.064 11.4454 17.1785 11.3342 17.281 11.2107L17.2885 11.2032C17.6238 10.8258 17.8965 10.3971 18.0962 9.93343C18.1195 9.8802 18.1415 9.82644 18.1622 9.77218V9.76093L18.1697 9.74293C18.2114 9.64519 18.2519 9.54694 18.2912 9.44818L18.3167 9.38293L18.3422 9.31693C18.6602 8.55568 18.8822 7.75768 19.0045 6.94168C19.0115 6.85068 19.034 6.76343 19.072 6.67993C19.1154 6.58708 19.1774 6.50412 19.2542 6.43618C19.3996 6.30694 19.5903 6.2406 19.7845 6.25168C19.9457 6.26068 20.0995 6.32368 20.2195 6.43168C20.3034 6.50525 20.3698 6.59662 20.4139 6.69912C20.458 6.80162 20.4787 6.91267 20.4745 7.02418C20.4665 7.14418 20.4527 7.26918 20.4332 7.39918C20.3732 7.76918 20.2892 8.13343 20.1812 8.49193L20.1497 8.59693C20.0132 9.04375 19.8593 9.48509 19.6885 9.91993L19.6637 9.98293C19.6213 10.0906 19.5778 10.1979 19.5332 10.3047L19.522 10.3317L19.4575 10.4877C19.1939 11.0997 18.8361 11.6665 18.397 12.1677C18.0456 12.6146 17.5667 12.9441 17.0237 13.1127C16.769 13.1815 16.5032 13.1998 16.2415 13.1667C16.1346 13.1533 16.0288 13.1322 15.925 13.1037C15.8704 13.0983 15.8166 13.087 15.7645 13.0699C15.5221 12.9892 15.298 12.8615 15.105 12.6941C14.912 12.5267 14.7539 12.3229 14.6396 12.0944C14.5254 11.8659 14.4573 11.6171 14.4393 11.3623C14.4212 11.1074 14.4536 10.8515 14.5345 10.6092ZM13.0442 6.98518C12.9657 7.04083 12.8768 7.08017 12.7829 7.10088C12.6889 7.1216 12.5917 7.12326 12.4971 7.10578C12.4025 7.0883 12.3123 7.05202 12.2319 6.9991C12.1515 6.94618 12.0826 6.87769 12.0292 6.79766C11.9757 6.71764 11.9388 6.62772 11.9207 6.5332C11.9026 6.43869 11.9037 6.34151 11.9238 6.2474C11.9439 6.15329 11.9826 6.06417 12.0377 5.98529C12.0929 5.90642 12.1632 5.8394 12.2447 5.78818C12.4035 5.6884 12.5949 5.65448 12.7782 5.69363C12.9616 5.73279 13.1225 5.84194 13.2266 5.99786C13.3308 6.15378 13.37 6.34418 13.3359 6.52856C13.3018 6.71294 13.1972 6.87676 13.0442 6.98518ZM21.9752 21.1197C22.0545 21.0634 22.1443 21.0235 22.2393 21.0025C22.3342 20.9815 22.4324 20.9797 22.5281 20.9973C22.6237 21.0149 22.7149 21.0515 22.7961 21.1049C22.8774 21.1584 22.9471 21.2276 23.0012 21.3084C23.0553 21.3893 23.0926 21.4801 23.1109 21.5756C23.1292 21.6711 23.1283 21.7694 23.108 21.8645C23.0877 21.9596 23.0486 22.0497 22.9929 22.1294C22.9372 22.2092 22.866 22.2769 22.7837 22.3287C22.6234 22.4295 22.43 22.4638 22.2448 22.4243C22.0595 22.3848 21.897 22.2747 21.7917 22.1172C21.6864 21.9598 21.6467 21.7675 21.681 21.5812C21.7152 21.3949 21.8208 21.2294 21.9752 21.1197ZM22.7245 10.6842C22.9552 10.6842 23.1765 10.5925 23.3397 10.4294C23.5028 10.2662 23.5945 10.0449 23.5945 9.81418C23.5945 9.58345 23.5028 9.36216 23.3397 9.199C23.1765 9.03584 22.9552 8.94418 22.7245 8.94418C22.4937 8.94418 22.2724 9.03584 22.1093 9.199C21.9461 9.36216 21.8545 9.58345 21.8545 9.81418C21.8545 10.0449 21.9461 10.2662 22.1093 10.4294C22.2724 10.5925 22.4937 10.6842 22.7245 10.6842ZM8.98747 10.5372C8.89254 10.6035 8.78534 10.6502 8.67212 10.6746C8.55891 10.6989 8.44198 10.7004 8.32818 10.679C8.21438 10.6576 8.106 10.6137 8.00939 10.5498C7.91279 10.486 7.82991 10.4035 7.7656 10.3072C7.7013 10.2108 7.65687 10.1027 7.63492 9.98897C7.61296 9.87527 7.61393 9.75833 7.63776 9.64501C7.66159 9.53168 7.70781 9.42426 7.77369 9.32903C7.83958 9.2338 7.92382 9.15268 8.02147 9.09043C8.21342 8.96233 8.44839 8.91573 8.6747 8.96088C8.90101 9.00603 9.10012 9.13923 9.22822 9.33118C9.35632 9.52313 9.40292 9.75811 9.35777 9.98442C9.31262 10.2107 9.17942 10.4098 8.98747 10.5379" fill="black"/>
<path d="M26.0467 15.1674C25.9533 15.2107 25.8523 15.2351 25.7494 15.2393C25.6466 15.2434 25.5439 15.2271 25.4474 15.1914C24.652 14.894 23.7938 14.8047 22.9542 14.9319C22.1146 15.0591 21.3213 15.3986 20.6497 15.9181C22.3949 15.9631 24.1012 16.4386 25.6169 17.3049C25.9875 17.5141 26.2604 17.8613 26.3761 18.2709C26.4917 18.6805 26.4408 19.1192 26.2343 19.4914C26.0278 19.8635 25.6826 20.139 25.2739 20.2576C24.8651 20.3763 24.4261 20.3286 24.0524 20.1249C23.1552 19.604 22.1573 19.2802 21.1252 19.1751C20.0931 19.07 19.0505 19.1859 18.0667 19.5151C18.3179 19.9974 18.5062 20.5104 18.6254 21.0414C18.6682 21.1996 18.6892 21.3639 18.6884 21.5274C18.714 21.7346 18.6951 21.945 18.6331 22.1444C18.571 22.3438 18.4671 22.5277 18.3284 22.6839C18.2684 22.7439 18.2022 22.7961 18.1297 22.8406C17.9081 23.0535 17.6357 23.2061 17.3384 23.2839L7.7849 25.8414C7.47688 25.9236 7.15264 25.9232 6.84482 25.8402C6.53699 25.7573 6.25644 25.5948 6.03139 25.369C5.80635 25.1431 5.64475 24.862 5.56286 24.5539C5.48096 24.2458 5.48167 23.9216 5.5649 23.6139L8.1224 14.0589C8.20095 13.7582 8.35598 13.4831 8.5724 13.2601C8.6154 13.1906 8.6654 13.1269 8.7224 13.0689C8.87376 12.9338 9.05171 12.8318 9.2448 12.7696C9.4379 12.7073 9.64188 12.6861 9.84365 12.7074C10.0259 12.7029 10.2082 12.7261 10.3837 12.7764C10.8495 12.8812 11.3012 13.0414 11.7292 13.2534C11.9392 12.0384 11.7367 10.7874 11.1524 9.70136C11.042 9.49549 11.0179 9.25419 11.0854 9.03055C11.1529 8.80691 11.3065 8.61926 11.5124 8.50886C11.7183 8.39846 11.9596 8.37437 12.1832 8.44188C12.4068 8.5094 12.5945 8.66299 12.7049 8.86886C13.5817 10.503 13.8027 12.41 13.3229 14.2014C13.9052 14.6145 14.4587 15.0668 14.9797 15.5551C15.1377 15.3949 15.352 15.3028 15.5769 15.2985C15.8019 15.2941 16.0197 15.3778 16.1838 15.5317C16.3479 15.6856 16.4453 15.8976 16.4553 16.1224C16.4654 16.3471 16.3872 16.5669 16.2374 16.7349C16.3444 16.6924 16.4529 16.6516 16.5629 16.6126C17.5514 16.2574 18.5822 16.0335 19.6289 15.9466C19.5367 15.8726 19.4623 15.7788 19.4113 15.6722C19.3603 15.5655 19.334 15.4487 19.3343 15.3305C19.3346 15.2123 19.3615 15.0957 19.413 14.9892C19.4645 14.8828 19.5393 14.7894 19.6319 14.7159C20.5171 14.0157 21.5681 13.5561 22.6832 13.3813C23.7982 13.2065 24.9394 13.3226 25.9964 13.7184C26.1413 13.7732 26.2667 13.8697 26.3569 13.9956C26.4471 14.1216 26.4981 14.2713 26.5035 14.4261C26.5089 14.581 26.4684 14.7339 26.3871 14.8658C26.3058 14.9977 26.1874 15.1026 26.0467 15.1674ZM12.6307 20.6851L12.4949 20.5689L12.6194 20.6754L12.6307 20.6851ZM7.04015 25.1161C7.22015 25.1649 7.41065 25.1649 7.5914 25.1169L8.0249 25.0036C7.41191 24.5591 6.86126 24.0344 6.38765 23.4436L6.2894 23.8111C6.21602 24.0837 6.25388 24.3743 6.39466 24.619C6.53543 24.8637 6.76761 25.0425 7.04015 25.1161ZM8.23715 23.2359C8.77111 23.7279 9.37177 24.1423 10.0214 24.4666L12.1199 23.9049C11.3032 23.4224 10.5413 22.8528 9.8474 22.2061C8.93998 21.3491 8.14784 20.3777 7.4909 19.3164L6.8954 21.5431C7.26034 22.168 7.71209 22.7379 8.23715 23.2359ZM10.8749 21.1096C11.8758 22.0337 13.0241 22.7841 14.2724 23.3296L16.1407 22.8286C14.432 22.1533 12.8929 21.1104 11.6324 19.7739C11.1906 19.3353 10.7739 18.872 10.3844 18.3864C10.2119 18.1724 10.0509 17.9591 9.9014 17.7466C9.3408 16.9885 8.89314 16.153 8.5724 15.2664L8.04515 17.2621C8.76149 18.697 9.71861 19.9983 10.8749 21.1096ZM25.5254 18.1771C25.4511 18.0886 25.3604 18.0153 25.2584 17.9611H25.2547C23.9836 17.234 22.5666 16.7991 21.1065 16.688C19.6464 16.5768 18.1799 16.7921 16.8134 17.3184L16.6694 17.3709L16.6762 17.3784C15.2549 17.9469 13.9862 18.8396 12.9712 19.9854C13.1654 20.1556 13.3537 20.3116 13.5404 20.4616C13.8022 20.6716 14.0654 20.8659 14.3654 21.0616C15.1838 20.1197 16.2213 19.3934 17.3864 18.9466C18.5225 18.501 19.7442 18.3163 20.9612 18.4063C22.1782 18.4962 23.3595 18.8585 24.4177 19.4664C24.5922 19.5711 24.7982 19.6107 24.9991 19.5781C25.2001 19.5456 25.383 19.4431 25.5157 19.2886C25.6483 19.1342 25.722 18.9378 25.7238 18.7343C25.7256 18.5307 25.6553 18.3338 25.5254 18.1771Z" fill="black"/>
</svg>
