<svg width="24" height="25" viewBox="0 0 24 25" fill="none" xmlns="http://www.w3.org/2000/svg">
<path d="M12 0.5C8.74667 0.5 8.33333 0.513333 7.05333 0.566667C5.77333 0.633333 4.90667 0.833333 4.13333 1.12667C3.33411 1.42898 2.61058 1.90224 2.01333 2.51333C1.34667 3.18 0.946667 3.84667 0.626667 4.64667C0.277214 5.57699 0.0878691 6.55977 0.0666666 7.55333C0.0133333 8.83333 0 9.24667 0 12.5C0 15.7533 0.0133333 16.1667 0.0666666 17.4467C0.133333 18.7267 0.333333 19.5933 0.626667 20.3667C0.933333 21.1533 1.34667 21.82 2.01333 22.4867C2.68 23.1533 3.34667 23.5533 4.14667 23.8733C5.07699 24.2228 6.05977 24.4121 7.05333 24.4333C8.33333 24.4867 8.74667 24.5 12 24.5C15.2533 24.5 15.6667 24.4867 16.9467 24.4333C18.2267 24.3667 19.0933 24.1667 19.8667 23.8733C20.6659 23.571 21.3894 23.0978 21.9867 22.4867C22.6533 21.82 23.0533 21.1533 23.3733 20.3533C23.7228 19.423 23.9121 18.4402 23.9333 17.4467C23.9867 16.1667 24 15.7533 24 12.5C24 9.24667 23.9867 8.83333 23.9333 7.55333C23.9131 6.55534 23.7238 5.568 23.3733 4.63333C23.071 3.83411 22.5978 3.11058 21.9867 2.51333C21.32 1.84667 20.6533 1.44667 19.8533 1.12667C18.923 0.777214 17.9402 0.587869 16.9467 0.566667C15.6667 0.513333 15.2533 0.5 12 0.5ZM12 2.66C15.2 2.66 15.5867 2.67333 16.8533 2.72667C18.0133 2.78 18.6533 2.99333 19.08 3.14C19.64 3.36667 20.04 3.62 20.4533 4.04667C20.88 4.46 21.1333 4.86 21.36 5.42C21.52 5.84667 21.72 6.48667 21.76 7.64667C21.8267 8.91333 21.84 9.3 21.84 12.5C21.84 15.7 21.8267 16.0867 21.76 17.3533C21.7067 18.5133 21.5067 19.1533 21.3467 19.58C21.12 20.14 20.8667 20.54 20.44 20.9533C20.0267 21.38 19.6133 21.6333 19.0667 21.86C18.64 22.02 18 22.22 16.8267 22.26C15.56 22.3267 15.1733 22.34 11.9733 22.34C8.76 22.34 8.37333 22.3267 7.10667 22.26C6.34661 22.2472 5.59403 22.1075 4.88 21.8467C4.35571 21.6521 3.88182 21.3423 3.49333 20.94C3.09579 20.5555 2.79039 20.086 2.6 19.5667C2.42667 19.14 2.24 18.5 2.17333 17.3267C2.13333 16.0733 2.12 15.6733 2.12 12.4867C2.12 9.28667 2.12 8.88667 2.17333 7.62C2.24 6.46 2.44 5.80667 2.6 5.39333C2.8 4.82 3.08 4.43333 3.49333 4.00667C3.87924 3.60443 4.35421 3.29844 4.88 3.11333C5.29333 2.94 5.92 2.75333 7.09333 2.68667C8.37333 2.64667 8.74667 2.63333 11.96 2.63333L12 2.66ZM12 6.34C11.1911 6.34 10.39 6.49933 9.64267 6.8089C8.8953 7.11847 8.21623 7.57221 7.64422 8.14422C7.07221 8.71623 6.61847 9.3953 6.3089 10.1427C5.99933 10.89 5.84 11.6911 5.84 12.5C5.84 13.3089 5.99933 14.11 6.3089 14.8573C6.61847 15.6047 7.07221 16.2838 7.64422 16.8558C8.21623 17.4278 8.8953 17.8815 9.64267 18.1911C10.39 18.5007 11.1911 18.66 12 18.66C13.6337 18.66 15.2006 18.011 16.3558 16.8558C17.511 15.7006 18.16 14.1337 18.16 12.5C18.16 10.8663 17.511 9.29945 16.3558 8.14422C15.2006 6.989 13.6337 6.34 12 6.34ZM12 16.5C10.9391 16.5 9.92172 16.0786 9.17157 15.3284C8.42143 14.5783 8 13.5609 8 12.5C8 11.4391 8.42143 10.4217 9.17157 9.67157C9.92172 8.92143 10.9391 8.5 12 8.5C13.0609 8.5 14.0783 8.92143 14.8284 9.67157C15.5786 10.4217 16 11.4391 16 12.5C16 13.5609 15.5786 14.5783 14.8284 15.3284C14.0783 16.0786 13.0609 16.5 12 16.5ZM19.84 6.1C19.84 6.48191 19.6883 6.84818 19.4182 7.11823C19.1482 7.38829 18.7819 7.54 18.4 7.54C18.0181 7.54 17.6518 7.38829 17.3818 7.11823C17.1117 6.84818 16.96 6.48191 16.96 6.1C16.96 5.71809 17.1117 5.35182 17.3818 5.08177C17.6518 4.81171 18.0181 4.66 18.4 4.66C18.7819 4.66 19.1482 4.81171 19.4182 5.08177C19.6883 5.35182 19.84 5.71809 19.84 6.1Z" fill="url(#paint0_linear_24_1076)"/>
<defs>
<linearGradient id="paint0_linear_24_1076" x1="-4.82798e-06" y1="576.5" x2="24" y2="0.499987" gradientUnits="userSpaceOnUse">
<stop stop-color="#FFD520"/>
<stop offset="0.49" stop-color="#F50000"/>
<stop offset="1" stop-color="#B900B4"/>
</linearGradient>
</defs>
</svg>
