<svg width="25" height="25" viewBox="0 0 25 25" fill="none" xmlns="http://www.w3.org/2000/svg">
<g clip-path="url(#clip0_24_1077)">
<path d="M22.5508 1.06259H3.05078C2.60834 1.05808 2.18218 1.22928 1.86582 1.53862C1.54945 1.84795 1.36872 2.27016 1.36328 2.71259V22.2913C1.3697 22.7331 1.55087 23.1544 1.86713 23.4629C2.18338 23.7714 2.60898 23.9421 3.05078 23.9376H22.5508C22.9932 23.9411 23.4191 23.7693 23.7353 23.4598C24.0515 23.1503 24.2323 22.7282 24.2383 22.2857V2.70696C24.2304 2.26583 24.0487 1.84564 23.7327 1.53772C23.4167 1.22981 22.992 1.05906 22.5508 1.06259Z" fill="#0076B2"/>
<path d="M4.75047 9.63672H8.14609V20.5623H4.75047V9.63672ZM6.44922 4.19922C6.83868 4.19922 7.21939 4.31473 7.54319 4.53114C7.86699 4.74756 8.11933 5.05514 8.26829 5.41499C8.41724 5.77485 8.45612 6.17079 8.38 6.55274C8.30389 6.93469 8.11619 7.28549 7.84067 7.56075C7.56515 7.83601 7.21418 8.02337 6.83215 8.09912C6.45013 8.17487 6.05422 8.13561 5.69451 7.98632C5.3348 7.83702 5.02746 7.58439 4.81135 7.26038C4.59525 6.93638 4.4801 6.55556 4.48047 6.16609C4.48097 5.64427 4.68861 5.144 5.05777 4.77519C5.42692 4.40638 5.9274 4.19922 6.44922 4.19922ZM10.2761 9.63672H13.5311V11.1367H13.5761C14.0298 10.278 15.1361 9.37234 16.788 9.37234C20.2267 9.36484 20.8642 11.628 20.8642 14.5623V20.5623H17.4686V15.2467C17.4686 13.9811 17.4461 12.3517 15.7042 12.3517C13.9623 12.3517 13.6661 13.7317 13.6661 15.1642V20.5623H10.2761V9.63672Z" fill="white"/>
</g>
<defs>
<clipPath id="clip0_24_1077">
<rect width="24" height="24" fill="white" transform="translate(0.800781 0.5)"/>
</clipPath>
</defs>
</svg>
