<svg width="32" height="32" viewBox="0 0 32 32" fill="none" xmlns="http://www.w3.org/2000/svg">
<mask id="path-1-inside-1_24_265" fill="white">
<path d="M0 6C0 2.68629 2.68629 0 6 0H26C29.3137 0 32 2.68629 32 6V26C32 29.3137 29.3137 32 26 32H6C2.68629 32 0 29.3137 0 26V6Z"/>
</mask>
<path d="M0 6C0 2.68629 2.68629 0 6 0H26C29.3137 0 32 2.68629 32 6V26C32 29.3137 29.3137 32 26 32H6C2.68629 32 0 29.3137 0 26V6Z" fill="#FFDF95"/>
<path d="M6 0V1H26V0V-1H6V0ZM32 6H31V26H32H33V6H32ZM26 32V31H6V32V33H26V32ZM0 26H1V6H0H-1V26H0ZM6 32V31C3.23858 31 1 28.7614 1 26H0H-1C-1 29.866 2.13401 33 6 33V32ZM32 26H31C31 28.7614 28.7614 31 26 31V32V33C29.866 33 33 29.866 33 26H32ZM26 0V1C28.7614 1 31 3.23858 31 6H32H33C33 2.13401 29.866 -1 26 -1V0ZM6 0V-1C2.13401 -1 -1 2.13401 -1 6H0H1C1 3.23858 3.23858 1 6 1V0Z" fill="white" fill-opacity="0.05" mask="url(#path-1-inside-1_24_265)"/>
<path d="M5.5 11.125C5.5 10.2299 5.85558 9.37145 6.48851 8.73851C7.12145 8.10558 7.97989 7.75 8.875 7.75H23.125C24.0201 7.75 24.8785 8.10558 25.5115 8.73851C26.1444 9.37145 26.5 10.2299 26.5 11.125V20.875C26.5 21.7701 26.1444 22.6285 25.5115 23.2615C24.8785 23.8944 24.0201 24.25 23.125 24.25H8.875C7.97989 24.25 7.12145 23.8944 6.48851 23.2615C5.85558 22.6285 5.5 21.7701 5.5 20.875V11.125ZM8.875 9.25C8.37772 9.25 7.90081 9.44754 7.54917 9.79917C7.19754 10.1508 7 10.6277 7 11.125V12.25H25V11.125C25 10.6277 24.8025 10.1508 24.4508 9.79917C24.0992 9.44754 23.6223 9.25 23.125 9.25H8.875ZM7 20.875C7 21.3723 7.19754 21.8492 7.54917 22.2008C7.90081 22.5525 8.37772 22.75 8.875 22.75H23.125C23.6223 22.75 24.0992 22.5525 24.4508 22.2008C24.8025 21.8492 25 21.3723 25 20.875V13.75H7V20.875ZM19.75 18.25H22C22.1989 18.25 22.3897 18.329 22.5303 18.4697C22.671 18.6103 22.75 18.8011 22.75 19C22.75 19.1989 22.671 19.3897 22.5303 19.5303C22.3897 19.671 22.1989 19.75 22 19.75H19.75C19.5511 19.75 19.3603 19.671 19.2197 19.5303C19.079 19.3897 19 19.1989 19 19C19 18.8011 19.079 18.6103 19.2197 18.4697C19.3603 18.329 19.5511 18.25 19.75 18.25Z" fill="black"/>
</svg>
