<svg width="32" height="32" viewBox="0 0 32 32" fill="none" xmlns="http://www.w3.org/2000/svg">
<mask id="path-1-inside-1_24_395" fill="white">
<path d="M0 6C0 2.68629 2.68629 0 6 0H26C29.3137 0 32 2.68629 32 6V26C32 29.3137 29.3137 32 26 32H6C2.68629 32 0 29.3137 0 26V6Z"/>
</mask>
<path d="M0 6C0 2.68629 2.68629 0 6 0H26C29.3137 0 32 2.68629 32 6V26C32 29.3137 29.3137 32 26 32H6C2.68629 32 0 29.3137 0 26V6Z" fill="#FF9A9C"/>
<path d="M6 0V1H26V0V-1H6V0ZM32 6H31V26H32H33V6H32ZM26 32V31H6V32V33H26V32ZM0 26H1V6H0H-1V26H0ZM6 32V31C3.23858 31 1 28.7614 1 26H0H-1C-1 29.866 2.13401 33 6 33V32ZM32 26H31C31 28.7614 28.7614 31 26 31V32V33C29.866 33 33 29.866 33 26H32ZM26 0V1C28.7614 1 31 3.23858 31 6H32H33C33 2.13401 29.866 -1 26 -1V0ZM6 0V-1C2.13401 -1 -1 2.13401 -1 6H0H1C1 3.23858 3.23858 1 6 1V0Z" fill="white" fill-opacity="0.05" mask="url(#path-1-inside-1_24_395)"/>
<path d="M14 20.5L17 21.5C17 21.5 24.5 20 25.5 20C26.5 20 26.5 21 25.5 22C24.5 23 21 26 18 26C15 26 13 24.5 11 24.5H6" stroke="black" stroke-width="2" stroke-linecap="round" stroke-linejoin="round"/>
<path d="M6 18.5C7 17.5 9 16 11 16C13 16 17.75 18 18.5 19C19.25 20 17 21.5 17 21.5M12 13V9C12 8.73478 12.1054 8.48043 12.2929 8.29289C12.4804 8.10536 12.7348 8 13 8H25C25.2652 8 25.5196 8.10536 25.7071 8.29289C25.8946 8.48043 26 8.73478 26 9V17" stroke="black" stroke-width="2" stroke-linecap="round" stroke-linejoin="round"/>
<path d="M16.5 8H21.5V12.5H16.5V8Z" stroke="black" stroke-width="2" stroke-linecap="round" stroke-linejoin="round"/>
</svg>
