<svg width="64" height="64" viewBox="0 0 64 64" fill="none" xmlns="http://www.w3.org/2000/svg">
<rect width="64" height="64" rx="8" fill="white"/>
<rect x="0.75" y="0.75" width="62.5" height="62.5" rx="7.25" stroke="#5FBF92" stroke-opacity="0.3" stroke-width="1.5"/>
<path fill-rule="evenodd" clip-rule="evenodd" d="M42.425 25.526L32.9555 33.368C32.6864 33.5909 32.3479 33.7129 31.9985 33.7129C31.6491 33.7129 31.3106 33.5909 31.0415 33.368L21.5765 25.526C21.5257 25.6789 21.4999 25.8389 21.5 26V38C21.5 38.3978 21.658 38.7794 21.9393 39.0607C22.2206 39.342 22.6022 39.5 23 39.5H41C41.3978 39.5 41.7794 39.342 42.0607 39.0607C42.342 38.7794 42.5 38.3978 42.5 38V26C42.5006 25.839 42.4753 25.679 42.425 25.526ZM23 23H41C41.7957 23 42.5587 23.3161 43.1213 23.8787C43.6839 24.4413 44 25.2044 44 26V38C44 38.7956 43.6839 39.5587 43.1213 40.1213C42.5587 40.6839 41.7957 41 41 41H23C22.2044 41 21.4413 40.6839 20.8787 40.1213C20.3161 39.5587 20 38.7956 20 38V26C20 25.2044 20.3161 24.4413 20.8787 23.8787C21.4413 23.3161 22.2044 23 23 23ZM22.685 24.5L31.049 31.4045C31.3169 31.6258 31.6533 31.7472 32.0007 31.748C32.3481 31.7488 32.6851 31.629 32.954 31.409L41.402 24.5H22.685Z" fill="#5FBF92"/>
</svg>
