<svg width="64" height="64" viewBox="0 0 64 64" fill="none" xmlns="http://www.w3.org/2000/svg">
<rect width="64" height="64" rx="8" fill="white"/>
<rect x="0.75" y="0.75" width="62.5" height="62.5" rx="7.25" stroke="#5FBF92" stroke-opacity="0.3" stroke-width="1.5"/>
<path d="M32 30V34M30.268 31L33.732 33M33.732 31L30.267 33M26.732 30V34M25 31L28.464 33M28.464 31L25 33M37.268 30V34M35.536 31L39 33M39 31L35.535 33M42 32C42 35.771 42 37.657 40.828 38.828C39.656 39.999 37.771 40 34 40H30C26.229 40 24.343 40 23.172 38.828C22.001 37.656 22 35.771 22 32C22 28.229 22 26.343 23.172 25.172C24.344 24.001 26.229 24 30 24H34C37.771 24 39.657 24 40.828 25.172C41.482 25.825 41.771 26.7 41.898 28" stroke="#5FBF92" stroke-linecap="round"/>
</svg>
