<svg width="354" height="354" viewBox="0 0 354 354" fill="none" xmlns="http://www.w3.org/2000/svg">
<path d="M185.212 224.949C239.941 224.949 284.308 180.582 284.308 125.852C284.308 71.1228 239.941 26.7559 185.212 26.7559C130.482 26.7559 86.1152 71.1228 86.1152 125.852C86.1152 180.582 130.482 224.949 185.212 224.949Z" fill="#FFC000"/>
<path d="M128.264 314.369H122.199L135.297 266.697H144.808L128.264 314.369Z" fill="#2E3744"/>
<path d="M155.403 314.369H149.338L162.436 266.697H171.947L155.403 314.369Z" fill="#2E3744"/>
<path d="M260.118 314.369H266.206L253.085 266.697H243.598L260.118 314.369Z" fill="#2E3744"/>
<path d="M233.001 314.369H239.066L225.968 266.697H216.457L233.001 314.369Z" fill="#2E3744"/>
<path d="M132.087 220.865L111.508 146.124H119.461L140.04 220.865H132.087Z" fill="#2E3744"/>
<path d="M208.032 220.865L187.477 146.124H195.406L215.985 220.865H208.032Z" fill="#2E3744"/>
<path d="M117.574 180.745L94.918 97.7207C92.6052 89.2247 99.0008 80.8467 107.804 80.8467H165.482C173.577 80.8467 180.657 86.2511 182.781 94.0391L207.183 183.483H121.161C119.486 183.507 117.999 182.374 117.574 180.745Z" fill="#5FBF92"/>
<path opacity="0.26" d="M131.639 180.745L108.983 97.7207C106.67 89.2247 113.066 80.8467 121.869 80.8467H107.803C99.0003 80.8467 92.5811 89.2247 94.9175 97.7207L117.574 180.745C118.022 182.374 119.485 183.483 121.161 183.483H135.226C133.551 183.507 132.064 182.374 131.639 180.745Z" fill="black"/>
<path d="M252.188 271.865H136.217C132.63 271.865 129.609 269.222 129.161 265.682L124.795 233.043C123.261 221.597 132.182 211.426 143.722 211.426H244.636C256.2 211.426 265.097 221.597 263.563 233.043L259.221 265.682C258.772 269.222 255.775 271.865 252.188 271.865Z" fill="#5FBF92"/>
<path opacity="0.26" d="M244.659 211.426H143.745C139.427 211.426 135.485 212.842 132.323 215.202C124.96 220.701 129.161 232.501 138.341 232.501H250.04C259.22 232.501 263.421 220.724 256.058 215.202C252.919 212.842 248.978 211.426 244.659 211.426Z" fill="black"/>
<path opacity="0.26" d="M201.235 224.996L171.948 264.007C171.948 264.007 160.171 267.854 158.566 271.866H211.218L227.88 260.608L233.874 271.866H243.621L224.977 222.872L201.235 224.996Z" fill="black"/>
<path d="M264.908 172.392C264.908 175.271 266.678 175.271 266.678 178.15C266.678 181.029 264.908 181.029 264.908 183.908M269.888 172.392C269.888 175.271 271.658 175.271 271.658 178.15C271.658 181.029 269.888 181.029 269.888 183.908M274.844 172.392C274.844 175.271 276.614 175.271 276.614 178.15C276.614 181.029 274.844 181.029 274.844 183.908" stroke="#A3A3A3" stroke-width="0.965953" stroke-miterlimit="10"/>
<path d="M260.518 278.072L264.554 289.258C268.566 301.672 277.746 311.584 289.452 317.319L297.971 322.039C299.34 322.794 298.963 324.847 297.429 325.083L290.207 326.145C286.219 326.735 282.159 325.673 278.973 323.195L273.994 319.301C272.625 318.569 271.115 318.145 269.557 318.074C266.371 317.909 260.707 317.13 258.843 313.519C256.199 308.421 258.087 301.695 258.087 301.695L245.957 277.151L260.518 278.072Z" fill="#A75A16"/>
<path d="M203.145 269.954C200.762 271.441 190.26 260.467 190.26 260.467L194.862 255.109L205.01 263.747C205.01 263.747 205.269 268.632 203.145 269.954Z" fill="#2E3744"/>
<path d="M204.515 257.799L187.452 270.166C176.832 277.741 170.153 289.494 168.242 302.38L166.33 311.938C166.023 313.472 163.946 313.731 163.262 312.339L160.052 305.778C158.282 302.144 158.07 297.966 159.486 294.167L161.681 288.243C161.964 286.709 161.893 285.152 161.492 283.641C160.69 280.573 159.722 274.909 162.578 272.054C166.637 267.994 173.622 267.782 173.622 267.782L193.352 248.808L204.515 257.799Z" fill="#A75A16"/>
<path d="M187.807 254.094C187.807 254.094 204.728 265.281 203.147 269.954C203.147 269.954 242.134 245.339 253.462 237.716C264.79 230.093 271.563 217.774 265.899 208.57C260.235 199.366 233.85 195 233.85 195L187.807 254.094Z" fill="#006AD3"/>
<path opacity="0.26" d="M240.623 225.774C239.679 216.546 234.321 208.9 226.935 203.873L204.373 233.043C208.385 233.255 211.146 233.35 211.146 233.35C211.146 233.35 214.073 248.005 216.645 261.386C224.504 256.383 234.416 250.082 242.393 244.937C241.661 236.583 241 229.456 240.623 225.774ZM255.278 236.394C253.272 230.14 248.34 215.272 245.767 211.189C242.487 205.997 237.389 202.481 232.245 199.177L248.883 240.713C250.653 239.556 252.21 238.518 253.437 237.692C254.075 237.291 254.688 236.842 255.278 236.394Z" fill="black"/>
<path d="M237.885 202.387C238.003 202.529 238.121 202.67 238.239 202.835C238.097 202.67 237.979 202.505 237.838 202.34C237.838 202.34 237.861 202.363 237.885 202.387Z" fill="#006AD3"/>
<path d="M241.425 212.133C241.425 220.488 234.652 227.261 226.297 227.261H177.021C164.159 227.261 149.173 224.995 144.783 210.859C140.393 196.723 145.916 185.961 145.916 185.961L199.441 188.84C199.441 188.84 203.193 191.342 215.913 192.475C222.616 193.065 229.129 195.425 234.369 199.342C235.596 200.239 236.752 201.23 237.814 202.339C240.08 204.959 241.425 208.381 241.425 212.133Z" fill="#006AD3"/>
<path d="M237.815 202.34C236.753 201.254 235.596 200.263 234.369 199.343C235.667 200.145 236.847 201.16 237.815 202.34Z" fill="#FFC000"/>
<path d="M244.752 213.549C243.336 209.207 240.929 205.478 237.885 202.41C238.003 202.552 238.121 202.693 238.239 202.858C238.097 202.693 237.979 202.528 237.837 202.363C235.076 199.106 230.946 197.053 226.344 197.053C217.99 197.053 211.24 203.826 211.24 212.18C211.24 214.163 211.641 216.074 212.349 217.821L212.373 217.868C212.845 219.024 213.459 220.086 214.167 221.078L217.659 227.308C217.659 227.308 224.598 243.144 230.238 256.289C235.902 269.434 238.003 280.196 238.003 280.196H265.733C265.685 280.148 248.859 225.986 244.752 213.549Z" fill="#006AD3"/>
<path d="M237.885 202.387C238.003 202.529 238.121 202.67 238.239 202.835C238.097 202.67 237.979 202.505 237.838 202.34C237.838 202.34 237.861 202.363 237.885 202.387Z" fill="#FFC000"/>
<path opacity="0.26" d="M143.084 197.478L185.682 188.085L145.822 185.961C145.822 185.961 143.532 190.469 143.084 197.478Z" fill="black"/>
<path d="M236.092 183.884C236.092 189.477 231.986 194.103 226.605 194.905C226.062 195 225.519 195.023 224.953 195.023C218.982 195.023 212.705 187.235 212.303 181.147C211.926 179.754 211.595 178.338 211.289 176.946C209.471 168.662 205.672 148.201 205.672 148.201L209.967 117.025C217.023 118.819 220.209 120.825 222.853 129.203C225.283 136.897 231.655 166.42 231.655 166.42L235.502 180.297L235.833 181.524C235.998 182.303 236.092 183.082 236.092 183.884Z" fill="#A75A16"/>
<path d="M261.838 127.858L257.331 140.814C257.331 140.814 249.92 167.813 246.522 177.678C243.477 186.504 239.159 193.962 230.615 194.906C229.86 195.071 229.081 195.165 228.279 195.165C222.662 195.165 218.107 190.61 218.107 184.994C218.107 182.091 219.335 179.448 221.293 177.607L231.654 166.42L250.723 139.044C251.761 137.534 252.044 135.646 251.454 133.923L250.345 130.643L255.23 120.825L260.611 124.271C261.791 125.026 262.31 126.536 261.838 127.858Z" fill="#A75A16"/>
<path d="M231.679 166.444L225.307 175.766" stroke="#733907" stroke-width="1.35357" stroke-miterlimit="10"/>
<path d="M206.002 115.586L208.503 116.342C210.651 117.002 212.256 118.772 212.68 120.967C213.388 124.578 214.781 130.643 217.188 137.888C221.082 149.665 214.073 160.167 206.025 163.447L197.553 188.794H144.453C142.069 188.794 140.04 186.906 140.087 184.522C140.181 180.628 144.028 180.534 145.491 171.4C146.978 162.173 154.955 130.926 163.404 122.076C171.782 113.344 179.994 113.628 186.319 113.486C193.14 113.368 206.002 115.586 206.002 115.586Z" fill="white"/>
<path d="M156.371 173.359L194.981 166.444" stroke="#919191" stroke-width="1.35357" stroke-miterlimit="10"/>
<path d="M175.344 151.033C184.638 151.033 192.171 143.5 192.171 134.207C192.171 124.914 184.638 117.38 175.344 117.38C166.051 117.38 158.518 124.914 158.518 134.207C158.518 143.5 166.051 151.033 175.344 151.033Z" fill="#A75A16"/>
<path d="M185.21 125.569C184.36 120.471 175.888 117.45 168.949 119.456L185.21 125.569Z" fill="#A75A16"/>
<path d="M185.21 125.569C184.36 120.471 175.888 117.45 168.949 119.456" stroke="#A75A16" stroke-width="1.35357" stroke-miterlimit="10"/>
<path d="M169.539 149.971L161.515 131.657L160.17 141.428C162.058 145.369 165.409 148.437 169.539 149.971Z" fill="#733907"/>
<path d="M215.701 227.237L209.99 214.493" stroke="#002D7D" stroke-width="1.31241" stroke-miterlimit="10"/>
<path d="M211.194 223.508L203.146 214.493" stroke="#002D7D" stroke-width="1.31241" stroke-miterlimit="10"/>
<path d="M299.835 322.841L290.82 317.862C278.878 312.032 269.745 301.743 265.308 289.258C265.167 288.834 264.766 288.55 264.317 288.527L251.408 288.149C250.794 288.126 250.393 288.763 250.629 289.306L256.647 302.333C256.647 302.333 255.632 308.492 258.441 313.873C260.423 317.673 266.418 318.499 269.769 318.664C271.397 318.758 273.026 319.16 274.465 319.938L279.728 324.045C283.103 326.664 287.374 327.797 291.599 327.16L299.245 326.027C300.874 325.815 301.275 323.644 299.835 322.841ZM166.094 313.944L168.124 303.843C170.082 290.698 177.139 278.874 187.688 270.874C188.042 270.614 188.207 270.142 188.089 269.694L184.549 257.28C184.384 256.69 183.652 256.478 183.204 256.903L172.608 266.579C172.608 266.579 166.424 267.476 162.153 271.771C159.132 274.792 160.147 280.762 160.996 284.019C161.421 285.6 161.492 287.276 161.185 288.881L158.872 295.158C157.386 299.17 157.622 303.584 159.486 307.43L162.861 314.369C163.569 315.832 165.764 315.572 166.094 313.944Z" fill="#919191"/>
<path d="M280.365 185.678V186.032C280.365 194.457 275.669 201.301 269.863 201.301C267.621 201.301 265.545 200.286 263.845 198.54C261.226 195.873 259.479 191.483 259.385 186.527C259.361 186.362 259.361 186.197 259.361 186.032C259.361 185.914 259.385 185.819 259.385 185.678H280.365Z" stroke="black" stroke-width="1.31241" stroke-miterlimit="10"/>
<path d="M263.869 198.54H257.073C253.769 198.54 251.078 195.849 251.078 192.545C251.078 190.893 251.763 189.383 252.848 188.297C253.934 187.212 255.421 186.527 257.096 186.527H259.433C259.503 191.507 261.226 195.873 263.869 198.54Z" stroke="black" stroke-width="1.31241" stroke-miterlimit="10"/>
<path d="M253.083 138.147H240.433C239.466 138.147 238.876 137.345 239.159 136.377L245.72 113.273C246.003 112.305 247.018 111.503 248.009 111.503H260.659C261.626 111.503 262.216 112.305 261.933 113.273L255.372 136.377C255.089 137.345 254.074 138.147 253.083 138.147Z" fill="#2E3744"/>
<path d="M249.685 114.666C249.496 115.35 248.765 115.917 248.08 115.917C247.396 115.917 246.995 115.35 247.183 114.666C247.372 113.981 248.104 113.415 248.788 113.415C249.473 113.415 249.897 113.981 249.685 114.666ZM254.169 115.279H251.549C251.195 115.279 251.007 114.996 251.101 114.666C251.195 114.312 251.549 114.052 251.903 114.052H254.523C254.877 114.052 255.066 114.335 254.971 114.666C254.877 115.02 254.499 115.279 254.169 115.279Z" stroke="white" stroke-width="0.676442" stroke-miterlimit="10"/>
<path d="M214.426 104.022C214.379 107.279 213.317 109.238 210.367 109.332C207.393 109.427 204.797 108.223 204.797 108.223L203.783 114.902L206.001 115.586C206.001 115.586 214.568 134.797 208.007 135.882C203.405 136.661 199.912 131.799 196.443 126.702C192.903 121.51 192.903 116.766 186.271 113.509C186.271 113.509 190.944 112.542 193.8 103.361C196.018 96.2106 202.744 82.7822 202.744 82.7822L215.535 87.3134L217.164 102.134L214.426 104.022Z" fill="#A75A16"/>
<path d="M204.775 108.223C201.471 106.948 198.332 103.385 198.332 103.385L204.775 108.223Z" fill="#733907"/>
<path d="M204.775 108.223C201.471 106.948 198.332 103.385 198.332 103.385" stroke="#733907" stroke-width="1.35357" stroke-miterlimit="10"/>
<path d="M211.146 101.096H214.427V102.606L211.146 101.096Z" fill="#FF4F4B"/>
<path d="M204.846 84.7639C204.846 84.7639 208.032 89.5311 206.427 94.2039C204.822 98.8767 196.893 99.1835 199.843 107.68H185.942C185.942 107.68 184.975 98.8767 184.975 91.7731C184.975 84.6695 189.223 74.8047 202.793 80.5395C207.465 74.4979 217.849 78.2031 218.699 86.0619C219.549 93.9207 216.787 93.4723 222.192 96.8707C227.596 100.269 226.157 105.296 214.38 104.022C214.38 104.022 214.38 103.455 214.38 97.3191C214.427 91.1359 211.454 86.4867 204.846 84.7639Z" fill="#2E3744"/>
<path d="M194.225 79.1946C194.225 83.9146 190.402 87.7378 185.682 87.7378C180.962 87.7378 177.139 83.9146 177.139 79.1946C177.139 74.4746 180.962 70.6514 185.682 70.6514C190.402 70.675 194.225 74.4982 194.225 79.1946Z" fill="#2E3744"/>
<path d="M194.225 116.482L198.331 119.456" stroke="#733907" stroke-width="1.35357" stroke-miterlimit="10"/>
<path d="M203.784 114.901L203.17 119.008" stroke="#733907" stroke-width="1.35357" stroke-miterlimit="10"/>
<path d="M257.261 140.484C257.261 140.484 254.783 137.628 255.75 133.38C255.75 133.38 249.331 133.805 249.284 132.956C249.237 132.106 256.93 130.997 256.93 130.997C256.93 130.997 247.608 125.899 248.127 124.412C248.647 122.926 257.945 128.495 257.945 128.495C257.945 128.495 248.977 122.548 249.307 121.132C249.614 119.692 258.96 125.852 258.96 125.852L258.205 122.288C258.205 122.288 253.272 117.875 254.075 117.002C254.877 116.129 259.904 120.589 259.904 120.589L262.854 124.46C263.68 125.569 263.821 127.032 263.231 128.259L257.261 140.484ZM185.564 126.985L197.505 188.817L240.717 193.442L249.756 187.802C249.756 187.802 257.756 186.315 257.615 190.705C257.615 190.705 259.455 192.475 257.615 194.103C257.615 194.103 258.039 196.156 257.261 196.794C256.482 197.431 255.137 196.794 255.137 196.794L250.464 197.077C250.464 197.077 255.561 197.714 257.874 200.404C257.874 200.404 256.529 201.042 250.818 198.634C250.818 198.634 246.074 202.741 240.363 199.838C240.363 199.838 211.382 207.744 201.73 209.726C192.077 211.709 177.799 208.31 174.118 191.484C170.436 174.657 161.539 131.658 161.539 131.658L185.564 126.985Z" fill="#A75A16"/>
<path d="M188.749 143.481L186.271 130.643" stroke="#A75A16" stroke-width="1.35357" stroke-miterlimit="10"/>
<path d="M100.911 200.428H27.9396C25.5796 200.428 23.668 198.517 23.668 196.157V153.984C23.668 151.624 25.5796 149.712 27.9396 149.712H100.911C103.271 149.712 105.182 151.624 105.182 153.984V196.18C105.182 198.54 103.247 200.428 100.911 200.428Z" fill="#006AD3"/>
<path opacity="0.26" d="M105.182 167.388H23.6914V178.267H105.182V167.388Z" fill="black"/>
<path d="M85.6655 189.194C85.6655 193.419 82.2435 196.817 78.0427 196.817C73.8183 196.817 70.4199 193.395 70.4199 189.194C70.4199 184.993 73.8419 181.571 78.0427 181.571C82.2435 181.548 85.6655 184.97 85.6655 189.194Z" fill="#FFC000"/>
<path d="M96.2378 189.194C96.2378 193.419 92.8158 196.817 88.615 196.817C84.3906 196.817 80.9922 193.395 80.9922 189.194C80.9922 184.993 84.4142 181.571 88.615 181.571C92.8394 181.548 96.2378 184.97 96.2378 189.194Z" fill="#FF4F4B"/>
<path d="M83.3286 194.67C84.6189 194.67 85.665 192.219 85.665 189.195C85.665 186.171 84.6189 183.72 83.3286 183.72C82.0382 183.72 80.9922 186.171 80.9922 189.195C80.9922 192.219 82.0382 194.67 83.3286 194.67Z" fill="white"/>
<path d="M51.8705 157.028H31.7633C30.8429 157.028 30.1113 156.296 30.1113 155.376C30.1113 154.455 30.8429 153.724 31.7633 153.724H51.8469C52.7673 153.724 53.4989 154.455 53.4989 155.376C53.5225 156.296 52.7909 157.028 51.8705 157.028ZM65.2989 163.376H31.7869C30.8665 163.376 30.1349 162.644 30.1349 161.724C30.1349 160.804 30.8665 160.072 31.7869 160.072H65.2989C66.2193 160.072 66.9509 160.804 66.9509 161.724C66.9509 162.644 66.1957 163.376 65.2989 163.376Z" stroke="white" stroke-width="1.35357" stroke-miterlimit="10"/>
</svg>
