<svg width="32" height="33" viewBox="0 0 32 33" fill="none" xmlns="http://www.w3.org/2000/svg">
<mask id="path-1-inside-1_24_414" fill="white">
<path d="M0 6.5C0 3.18629 2.68629 0.5 6 0.5H26C29.3137 0.5 32 3.18629 32 6.5V26.5C32 29.8137 29.3137 32.5 26 32.5H6C2.68629 32.5 0 29.8137 0 26.5V6.5Z"/>
</mask>
<path d="M0 6.5C0 3.18629 2.68629 0.5 6 0.5H26C29.3137 0.5 32 3.18629 32 6.5V26.5C32 29.8137 29.3137 32.5 26 32.5H6C2.68629 32.5 0 29.8137 0 26.5V6.5Z" fill="#DEDBDC"/>
<path d="M6 0.5V1.5H26V0.5V-0.5H6V0.5ZM32 6.5H31V26.5H32H33V6.5H32ZM26 32.5V31.5H6V32.5V33.5H26V32.5ZM0 26.5H1V6.5H0H-1V26.5H0ZM6 32.5V31.5C3.23858 31.5 1 29.2614 1 26.5H0H-1C-1 30.366 2.13401 33.5 6 33.5V32.5ZM32 26.5H31C31 29.2614 28.7614 31.5 26 31.5V32.5V33.5C29.866 33.5 33 30.366 33 26.5H32ZM26 0.5V1.5C28.7614 1.5 31 3.73858 31 6.5H32H33C33 2.63401 29.866 -0.5 26 -0.5V0.5ZM6 0.5V-0.5C2.13401 -0.5 -1 2.63401 -1 6.5H0H1C1 3.73858 3.23858 1.5 6 1.5V0.5Z" fill="white" fill-opacity="0.05" mask="url(#path-1-inside-1_24_414)"/>
<g clip-path="url(#clip0_24_414)">
<path d="M27.7376 4.67986C27.8607 4.78495 27.9465 4.92706 27.9822 5.08495C28.0179 5.24284 28.0016 5.40803 27.9356 5.55586C25.6406 10.7009 20.8211 17.8109 17.2931 21.5159C16.3031 22.5509 15.0839 23.339 13.7336 23.8169C13.7066 24.1574 13.6436 24.6239 13.4936 25.1189C13.1921 26.1074 12.4931 27.3374 10.9316 27.7289C9.41946 28.0896 7.85211 28.1568 6.31462 27.9269C6.0291 27.8798 5.74737 27.8121 5.47162 27.7244C5.21725 27.6463 4.98004 27.5205 4.77262 27.3539C4.6354 27.2384 4.53005 27.0896 4.46662 26.9219C4.38671 26.7072 4.38885 26.4706 4.47262 26.2574C4.61512 25.8899 4.94662 25.6874 5.16412 25.5794C5.75512 25.2839 6.10162 24.8999 6.46462 24.3404C6.60712 24.1244 6.74062 23.8949 6.89512 23.6324L7.07062 23.3354C7.29712 22.9529 7.55962 22.5254 7.88962 22.0634C8.68162 20.9549 9.69112 20.6759 10.5086 20.7194C10.6986 20.7314 10.8726 20.7554 11.0306 20.7914C11.1236 20.5334 11.2436 20.2214 11.3876 19.8794C11.7791 18.9509 12.3746 17.7509 13.1681 16.7759C16.4321 12.7709 22.4381 7.46686 26.8436 4.61986C26.9792 4.53232 27.1395 4.49087 27.3006 4.50168C27.4616 4.51249 27.6149 4.57498 27.7376 4.67986ZM11.0576 22.3679C10.8589 22.2804 10.646 22.2295 10.4291 22.2179C10.0601 22.1984 9.56962 22.2929 9.11062 22.9364C8.81512 23.3489 8.57812 23.7344 8.36062 24.1019L8.20312 24.3674C8.04412 24.6389 7.88362 24.9104 7.72312 25.1594C7.4191 25.6514 7.0336 26.0881 6.58312 26.4509C7.61812 26.6189 9.18712 26.6174 10.5686 26.2709C11.4071 26.0624 11.8331 25.4174 12.0581 24.6809C12.1686 24.3154 12.2321 23.9374 12.2471 23.5559L11.0576 22.3679ZM13.2176 22.4069C13.3976 22.3469 13.6331 22.2569 13.9046 22.1324C14.7681 21.7305 15.549 21.1709 16.2071 20.4824C19.0571 17.4884 22.8251 12.1274 25.2851 7.53586C21.4001 10.4264 16.9361 14.5259 14.3321 17.7239C13.6691 18.5384 13.1396 19.5884 12.7691 20.4629C12.5876 20.8949 12.4481 21.2729 12.3566 21.5429L13.2176 22.4069Z" fill="black"/>
</g>
<defs>
<clipPath id="clip0_24_414">
<rect width="24" height="24" fill="white" transform="translate(4 4.5)"/>
</clipPath>
</defs>
</svg>
