<svg width="32" height="32" viewBox="0 0 32 32" fill="none" xmlns="http://www.w3.org/2000/svg">
<mask id="path-1-inside-1_24_376" fill="white">
<path d="M0 6C0 2.68629 2.68629 0 6 0H26C29.3137 0 32 2.68629 32 6V26C32 29.3137 29.3137 32 26 32H6C2.68629 32 0 29.3137 0 26V6Z"/>
</mask>
<path d="M0 6C0 2.68629 2.68629 0 6 0H26C29.3137 0 32 2.68629 32 6V26C32 29.3137 29.3137 32 26 32H6C2.68629 32 0 29.3137 0 26V6Z" fill="#FFB266"/>
<path d="M6 0V1H26V0V-1H6V0ZM32 6H31V26H32H33V6H32ZM26 32V31H6V32V33H26V32ZM0 26H1V6H0H-1V26H0ZM6 32V31C3.23858 31 1 28.7614 1 26H0H-1C-1 29.866 2.13401 33 6 33V32ZM32 26H31C31 28.7614 28.7614 31 26 31V32V33C29.866 33 33 29.866 33 26H32ZM26 0V1C28.7614 1 31 3.23858 31 6H32H33C33 2.13401 29.866 -1 26 -1V0ZM6 0V-1C2.13401 -1 -1 2.13401 -1 6H0H1C1 3.23858 3.23858 1 6 1V0Z" fill="white" fill-opacity="0.05" mask="url(#path-1-inside-1_24_376)"/>
<path d="M9.56964 11.887C9.28389 10.0015 10.6144 8.30497 12.6469 7.68247C13.0078 7.57201 13.3972 7.6034 13.7357 7.77023C14.0742 7.93705 14.3364 8.22675 14.4686 8.58022L15.1204 10.3202C15.2252 10.6001 15.244 10.9049 15.1743 11.1956C15.1047 11.4862 14.9499 11.7494 14.7296 11.9515L12.7909 13.7297C12.6951 13.8174 12.6237 13.9285 12.5837 14.0521C12.5438 14.1757 12.5366 14.3075 12.5629 14.4347L12.5801 14.5127L12.6281 14.7085C12.6709 14.8735 12.7354 15.106 12.8261 15.3835C13.0061 15.9347 13.2934 16.6757 13.7209 17.416C14.1484 18.1562 14.6464 18.7757 15.0334 19.207C15.2351 19.4313 15.4458 19.6475 15.6649 19.855L15.7249 19.9105C15.8219 19.9964 15.9394 20.0557 16.0661 20.0826C16.1928 20.1095 16.3244 20.1032 16.4479 20.0642L18.9574 19.2745C19.2425 19.1848 19.5479 19.1824 19.8344 19.2676C20.1209 19.3527 20.3755 19.5214 20.5654 19.7522L21.7526 21.1937C22.2476 21.7937 22.1891 22.6757 21.6199 23.206C20.0644 24.6557 17.9254 24.9535 16.4374 23.7565C14.6139 22.285 13.0764 20.4909 11.9014 18.4637C10.7178 16.4372 9.92669 14.2065 9.56964 11.887ZM14.1341 14.533L15.7436 13.057C16.1841 12.6529 16.4938 12.1265 16.633 11.5452C16.7723 10.9639 16.7347 10.3543 16.5251 9.79447L15.8726 8.05447C15.6064 7.34356 15.0791 6.76094 14.3982 6.42536C13.7173 6.08979 12.9341 6.02652 12.2081 6.24847C9.68439 7.02172 7.65789 9.28447 8.08689 12.1112C8.47199 14.6176 9.32615 17.029 10.6046 19.219C11.872 21.4051 13.5303 23.3397 15.4969 24.9265C17.7281 26.719 20.7086 26.1077 22.6429 24.304C23.1967 23.7883 23.5327 23.0807 23.5825 22.3257C23.6323 21.5707 23.3919 20.8251 22.9106 20.2412L21.7234 18.7997C21.3435 18.338 20.8343 18.0004 20.2611 17.8302C19.6879 17.6599 19.077 17.6648 18.5066 17.8442L16.4239 18.4997C16.3306 18.4039 16.2394 18.3061 16.1501 18.2065C15.722 17.733 15.3432 17.2171 15.0199 16.6667C14.7047 16.1114 14.4472 15.5254 14.2511 14.9177C14.2095 14.7905 14.1705 14.6625 14.1341 14.5337" fill="black"/>
</svg>
