<svg width="25" height="25" viewBox="0 0 25 25" fill="none" xmlns="http://www.w3.org/2000/svg">
<g clip-path="url(#clip0_24_1080)">
<path d="M19.1804 0.5H6.01883C3.02588 0.5 0.599609 2.9375 0.599609 5.94431V19.0557C0.599609 22.0625 3.02588 24.5 6.01883 24.5H19.1804C22.1733 24.5 24.5996 22.0625 24.5996 19.0557V5.94431C24.5996 2.9375 22.1733 0.5 19.1804 0.5Z" fill="black"/>
<path d="M15.7744 7.48633H17.4675L13.7686 11.734L18.12 17.5136H14.7127L12.0441 14.0086L8.99016 17.5136H7.29609L11.2523 12.9707L7.07812 7.48633H10.5717L12.9839 10.6905L15.7744 7.48633ZM15.18 16.4955H16.1184L10.0622 8.45124H9.05531L15.18 16.4955Z" fill="white"/>
</g>
<defs>
<clipPath id="clip0_24_1080">
<rect width="24" height="24" fill="white" transform="translate(0.599609 0.5)"/>
</clipPath>
</defs>
</svg>
